<?xml version="1.0" encoding="utf-8"?>
<!-- Generator: Adobe Illustrator 26.5.0, SVG Export Plug-In . SVG Version: 6.00 Build 0)  -->
<svg version="1.1" id="Layer_1" xmlns="http://www.w3.org/2000/svg" xmlns:xlink="http://www.w3.org/1999/xlink" x="0px" y="0px"
	 viewBox="0 0 612 792" style="enable-background:new 0 0 612 792;" xml:space="preserve">
<style type="text/css">
	.st0{fill:none;stroke:#000000;stroke-width:3;stroke-miterlimit:10;}
	.st1{font-family:'MyriadPro-Regular';}
	.st2{font-size:12px;}
	.st3{fill:none;stroke:#000000;stroke-width:2;stroke-miterlimit:10;}
	.st4{fill:none;stroke:#000000;stroke-width:2;stroke-miterlimit:10;stroke-dasharray:11.7231,11.7231;}
	.st5{fill:none;stroke:#000000;stroke-width:2;stroke-miterlimit:10;stroke-dasharray:11.4014,11.4014;}
</style>
<image style="overflow:visible;" width="559" height="50" xlink:href="inferno.png"  transform="matrix(1 0 0 1 27 371)">
</image>
<g>
	<g>
		<line class="st0" x1="138.8" y1="355.3" x2="138.8" y2="317.5"/>
		<g>
			<polygon points="138.8,365 144.4,351.3 138.8,354.5 133.2,351.3 			"/>
		</g>
	</g>
</g>
<g>
	<g>
		<line class="st0" x1="250.6" y1="355.3" x2="250.6" y2="317.5"/>
		<g>
			<polygon points="250.6,365 256.2,351.3 250.6,354.5 245,351.3 			"/>
		</g>
	</g>
</g>
<g>
	<g>
		<line class="st0" x1="306.5" y1="355.3" x2="306.5" y2="317.5"/>
		<g>
			<polygon points="306.5,365 312.1,351.3 306.5,354.5 300.9,351.3 			"/>
		</g>
	</g>
</g>
<g>
	<g>
		<line class="st0" x1="362.4" y1="355.3" x2="362.4" y2="317.5"/>
		<g>
			<polygon points="362.4,365 368,351.3 362.4,354.5 356.8,351.3 			"/>
		</g>
	</g>
</g>
<g>
	<g>
		<line class="st0" x1="418.3" y1="355.3" x2="418.3" y2="317.5"/>
		<g>
			<polygon points="418.3,365 423.9,351.3 418.3,354.5 412.7,351.3 			"/>
		</g>
	</g>
</g>
<g>
	<g>
		<line class="st0" x1="474.2" y1="355.3" x2="474.2" y2="317.5"/>
		<g>
			<polygon points="474.2,365 479.8,351.3 474.2,354.5 468.6,351.3 			"/>
		</g>
	</g>
</g>
<g>
	<g>
		<line class="st0" x1="530.1" y1="355.3" x2="530.1" y2="317.5"/>
		<g>
			<polygon points="530.1,365 535.7,351.3 530.1,354.5 524.5,351.3 			"/>
		</g>
	</g>
</g>
<g>
	<g>
		<line class="st0" x1="586" y1="355.3" x2="586" y2="317.5"/>
		<g>
			<polygon points="586,365 591.6,351.3 586,354.5 580.4,351.3 			"/>
		</g>
	</g>
</g>
<g>
	<g>
		<line class="st0" x1="27" y1="355.3" x2="27" y2="317.5"/>
		<g>
			<polygon points="27,365 32.6,351.3 27,354.5 21.4,351.3 			"/>
		</g>
	</g>
</g>
<g>
	<g>
		<line class="st0" x1="194.7" y1="355.3" x2="194.7" y2="317.5"/>
		<g>
			<polygon points="194.7,365 200.3,351.3 194.7,354.5 189.1,351.3 			"/>
		</g>
	</g>
</g>
<g>
	<g>
		<line class="st0" x1="82.9" y1="355.3" x2="82.9" y2="317.5"/>
		<g>
			<polygon points="82.9,365 88.5,351.3 82.9,354.5 77.3,351.3 			"/>
		</g>
	</g>
</g>
<text transform="matrix(0.9956 0 0 1 16.6602 313.4876)" class="st1 st2">0/10</text>
<text transform="matrix(0.9956 0 0 1 72.4688 313.4876)" class="st1 st2">1/10</text>
<text transform="matrix(0.9956 0 0 1 128.2778 313.4876)" class="st1 st2">2/10</text>
<text transform="matrix(0.9956 0 0 1 184.0869 313.4876)" class="st1 st2">3/10</text>
<text transform="matrix(0.9956 0 0 1 239.8955 313.4876)" class="st1 st2">4/10</text>
<text transform="matrix(0.9956 0 0 1 295.7041 313.4876)" class="st1 st2">5/10</text>
<text transform="matrix(0.9956 0 0 1 351.5127 313.4876)" class="st1 st2">6/10</text>
<text transform="matrix(0.9956 0 0 1 407.3223 313.4876)" class="st1 st2">7/10</text>
<text transform="matrix(0.9956 0 0 1 463.1309 313.4876)" class="st1 st2">8/10</text>
<text transform="matrix(0.9956 0 0 1 518.9404 313.4876)" class="st1 st2">9/10</text>
<text transform="matrix(0.9956 0 0 1 571.7463 313.4876)" class="st1 st2">10/10</text>
<text transform="matrix(1 0 0 1 233.1611 282.4841)" class="st1 st2">(Iteration count)/(Max colors)</text>
<g>
	<g>
		<polyline class="st3" points="602.9,426.9 602.9,432.9 596.9,432.9 		"/>
		<line class="st4" x1="585.2" y1="432.9" x2="192.4" y2="432.9"/>
		<polyline class="st3" points="186.6,432.9 180.6,432.9 180.6,426.9 		"/>
		<line class="st5" x1="180.6" y1="415.5" x2="180.6" y2="307.2"/>
		<polyline class="st3" points="180.6,301.5 180.6,295.5 186.6,295.5 		"/>
		<line class="st4" x1="198.3" y1="295.5" x2="591" y2="295.5"/>
		<polyline class="st3" points="596.9,295.5 602.9,295.5 602.9,301.5 		"/>
		<line class="st5" x1="602.9" y1="312.9" x2="602.9" y2="421.2"/>
	</g>
</g>
</svg>
