<?xml version="1.0" encoding="utf-8"?>
<!-- Generator: Adobe Illustrator 26.5.0, SVG Export Plug-In . SVG Version: 6.00 Build 0)  -->
<svg version="1.1" id="Layer_1" xmlns="http://www.w3.org/2000/svg" xmlns:xlink="http://www.w3.org/1999/xlink" x="0px" y="0px"
	 viewBox="0 0 612 792" style="enable-background:new 0 0 612 792;" xml:space="preserve">
<style type="text/css">
	.st0{fill:none;stroke:#000000;stroke-width:2;stroke-miterlimit:10;}
	.st1{font-family:'MyriadPro-Regular';}
	.st2{font-size:12px;}
	.st3{fill:none;stroke:#000000;stroke-width:2;stroke-miterlimit:10;stroke-dasharray:11.7231,11.7231;}
	.st4{fill:none;stroke:#000000;stroke-width:2;stroke-miterlimit:10;stroke-dasharray:11.4014,11.4014;}
</style>
<image style="overflow:visible;" width="559" height="50" xlink:href="inferno.png"  transform="matrix(1 0 0 1 27 371)">
</image>
<g>
	<g>
		<line class="st0" x1="71.7" y1="359.7" x2="71.7" y2="318.7"/>
		<g>
			<polygon points="71.7,366.1 75.5,357 71.7,359.2 68,357 			"/>
		</g>
	</g>
</g>
<g>
	<g>
		<line class="st0" x1="161.2" y1="359.7" x2="161.2" y2="318.7"/>
		<g>
			<polygon points="161.2,366.1 164.9,357 161.2,359.2 157.4,357 			"/>
		</g>
	</g>
</g>
<g>
	<g>
		<line class="st0" x1="205.9" y1="359.7" x2="205.9" y2="318.7"/>
		<g>
			<polygon points="205.9,366.1 209.6,357 205.9,359.2 202.1,357 			"/>
		</g>
	</g>
</g>
<g>
	<g>
		<line class="st0" x1="284.1" y1="359.7" x2="284.1" y2="318.7"/>
		<g>
			<polygon points="284.1,366.1 287.9,357 284.1,359.2 280.4,357 			"/>
		</g>
	</g>
</g>
<g>
	<g>
		<line class="st0" x1="373.6" y1="359.7" x2="373.6" y2="318.7"/>
		<g>
			<polygon points="373.6,366.1 377.3,357 373.6,359.2 369.8,357 			"/>
		</g>
	</g>
</g>
<g>
	<g>
		<line class="st0" x1="451.8" y1="359.7" x2="451.8" y2="318.7"/>
		<g>
			<polygon points="451.8,366.1 455.6,357 451.8,359.2 448.1,357 			"/>
		</g>
	</g>
</g>
<g>
	<g>
		<line class="st0" x1="496.6" y1="359.7" x2="496.6" y2="318.7"/>
		<g>
			<polygon points="496.6,366.1 500.3,357 496.6,359.2 492.8,357 			"/>
		</g>
	</g>
</g>
<g>
	<g>
		<line class="st0" x1="541.3" y1="359.7" x2="541.3" y2="318.7"/>
		<g>
			<polygon points="541.3,366.1 545,357 541.3,359.2 537.5,357 			"/>
		</g>
	</g>
</g>
<g>
	<g>
		<line class="st0" x1="27" y1="359.7" x2="27" y2="318.7"/>
		<g>
			<polygon points="27,366.1 30.7,357 27,359.2 23.3,357 			"/>
		</g>
	</g>
</g>
<g>
	<g>
		<line class="st0" x1="116.4" y1="359.7" x2="116.4" y2="318.7"/>
		<g>
			<polygon points="116.4,366.1 120.2,357 116.4,359.2 112.7,357 			"/>
		</g>
	</g>
</g>
<g>
	<g>
		<line class="st0" x1="38.2" y1="359.7" x2="38.2" y2="318.7"/>
		<g>
			<polygon points="38.2,366.1 41.9,357 38.2,359.2 34.4,357 			"/>
		</g>
	</g>
</g>
<text transform="matrix(1 0 0 1 49.2485 314.0262)" class="st1 st2">3/50</text>
<g>
	<g>
		<line class="st0" x1="138.8" y1="359.7" x2="138.8" y2="318.7"/>
		<g>
			<polygon points="138.8,366.1 142.5,357 138.8,359.2 135.1,357 			"/>
		</g>
	</g>
</g>
<g>
	<g>
		<line class="st0" x1="239.4" y1="359.7" x2="239.4" y2="318.7"/>
		<g>
			<polygon points="239.4,366.1 243.2,357 239.4,359.2 235.7,357 			"/>
		</g>
	</g>
</g>
<g>
	<g>
		<line class="st0" x1="328.9" y1="359.7" x2="328.9" y2="318.7"/>
		<g>
			<polygon points="328.9,366.1 332.6,357 328.9,359.2 325.1,357 			"/>
		</g>
	</g>
</g>
<g>
	<g>
		<line class="st0" x1="418.3" y1="359.7" x2="418.3" y2="318.7"/>
		<g>
			<polygon points="418.3,366.1 422,357 418.3,359.2 414.6,357 			"/>
		</g>
	</g>
</g>
<g>
	<g>
		<line class="st0" x1="474.2" y1="359.7" x2="474.2" y2="318.7"/>
		<g>
			<polygon points="474.2,366.1 477.9,357 474.2,359.2 470.5,357 			"/>
		</g>
	</g>
</g>
<g>
	<g>
		<line class="st0" x1="518.9" y1="359.7" x2="518.9" y2="318.7"/>
		<g>
			<polygon points="518.9,366.1 522.7,357 518.9,359.2 515.2,357 			"/>
		</g>
	</g>
</g>
<g>
	<g>
		<line class="st0" x1="563.6" y1="359.7" x2="563.6" y2="318.7"/>
		<g>
			<polygon points="563.6,366.1 567.4,357 563.6,359.2 559.9,357 			"/>
		</g>
	</g>
</g>
<g>
	<g>
		<line class="st0" x1="49.4" y1="359.7" x2="49.4" y2="318.7"/>
		<g>
			<polygon points="49.4,366.1 53.1,357 49.4,359.2 45.6,357 			"/>
		</g>
	</g>
</g>
<g>
	<g>
		<line class="st0" x1="183.5" y1="359.7" x2="183.5" y2="318.7"/>
		<g>
			<polygon points="183.5,366.1 187.3,357 183.5,359.2 179.8,357 			"/>
		</g>
	</g>
</g>
<g>
	<g>
		<line class="st0" x1="94.1" y1="359.7" x2="94.1" y2="318.7"/>
		<g>
			<polygon points="94.1,366.1 97.8,357 94.1,359.2 90.3,357 			"/>
		</g>
	</g>
</g>
<g>
	<g>
		<line class="st0" x1="105.3" y1="359.7" x2="105.3" y2="318.7"/>
		<g>
			<polygon points="105.3,366.1 109,357 105.3,359.2 101.5,357 			"/>
		</g>
	</g>
</g>
<g>
	<g>
		<line class="st0" x1="194.7" y1="359.7" x2="194.7" y2="318.7"/>
		<g>
			<polygon points="194.7,366.1 198.4,357 194.7,359.2 191,357 			"/>
		</g>
	</g>
</g>
<g>
	<g>
		<line class="st0" x1="261.8" y1="359.7" x2="261.8" y2="318.7"/>
		<g>
			<polygon points="261.8,366.1 265.5,357 261.8,359.2 258,357 			"/>
		</g>
	</g>
</g>
<g>
	<g>
		<line class="st0" x1="351.2" y1="359.7" x2="351.2" y2="318.7"/>
		<g>
			<polygon points="351.2,366.1 355,357 351.2,359.2 347.5,357 			"/>
		</g>
	</g>
</g>
<g>
	<g>
		<line class="st0" x1="440.7" y1="359.7" x2="440.7" y2="318.7"/>
		<g>
			<polygon points="440.7,366.1 444.4,357 440.7,359.2 436.9,357 			"/>
		</g>
	</g>
</g>
<g>
	<g>
		<line class="st0" x1="485.4" y1="359.7" x2="485.4" y2="318.7"/>
		<g>
			<polygon points="485.4,366.1 489.1,357 485.4,359.2 481.6,357 			"/>
		</g>
	</g>
</g>
<g>
	<g>
		<line class="st0" x1="530.1" y1="359.7" x2="530.1" y2="318.7"/>
		<g>
			<polygon points="530.1,366.1 533.8,357 530.1,359.2 526.4,357 			"/>
		</g>
	</g>
</g>
<g>
	<g>
		<line class="st0" x1="574.8" y1="359.7" x2="574.8" y2="318.7"/>
		<g>
			<polygon points="574.8,366.1 578.6,357 574.8,359.2 571.1,357 			"/>
		</g>
	</g>
</g>
<g>
	<g>
		<line class="st0" x1="150" y1="359.7" x2="150" y2="318.7"/>
		<g>
			<polygon points="150,366.1 153.7,357 150,359.2 146.2,357 			"/>
		</g>
	</g>
</g>
<g>
	<g>
		<line class="st0" x1="60.5" y1="359.7" x2="60.5" y2="318.7"/>
		<g>
			<polygon points="60.5,366.1 64.3,357 60.5,359.2 56.8,357 			"/>
		</g>
	</g>
</g>
<g>
	<g>
		<line class="st0" x1="172.3" y1="359.7" x2="172.3" y2="318.7"/>
		<g>
			<polygon points="172.3,366.1 176.1,357 172.3,359.2 168.6,357 			"/>
		</g>
	</g>
</g>
<g>
	<g>
		<line class="st0" x1="306.5" y1="359.7" x2="306.5" y2="318.7"/>
		<g>
			<polygon points="306.5,366.1 310.2,357 306.5,359.2 302.8,357 			"/>
		</g>
	</g>
</g>
<g>
	<g>
		<line class="st0" x1="395.9" y1="359.7" x2="395.9" y2="318.7"/>
		<g>
			<polygon points="395.9,366.1 399.7,357 395.9,359.2 392.2,357 			"/>
		</g>
	</g>
</g>
<g>
	<g>
		<line class="st0" x1="463" y1="359.7" x2="463" y2="318.7"/>
		<g>
			<polygon points="463,366.1 466.8,357 463,359.2 459.3,357 			"/>
		</g>
	</g>
</g>
<g>
	<g>
		<line class="st0" x1="507.7" y1="359.7" x2="507.7" y2="318.7"/>
		<g>
			<polygon points="507.7,366.1 511.5,357 507.7,359.2 504,357 			"/>
		</g>
	</g>
</g>
<g>
	<g>
		<line class="st0" x1="552.5" y1="359.7" x2="552.5" y2="318.7"/>
		<g>
			<polygon points="552.5,366.1 556.2,357 552.5,359.2 548.7,357 			"/>
		</g>
	</g>
</g>
<g>
	<g>
		<line class="st0" x1="586" y1="359.7" x2="586" y2="318.7"/>
		<g>
			<polygon points="586,366.1 589.7,357 586,359.2 582.3,357 			"/>
		</g>
	</g>
</g>
<g>
	<g>
		<line class="st0" x1="82.9" y1="359.7" x2="82.9" y2="318.7"/>
		<g>
			<polygon points="82.9,366.1 86.6,357 82.9,359.2 79.2,357 			"/>
		</g>
	</g>
</g>
<g>
	<g>
		<line class="st0" x1="217.1" y1="359.7" x2="217.1" y2="318.7"/>
		<g>
			<polygon points="217.1,366.1 220.8,357 217.1,359.2 213.3,357 			"/>
		</g>
	</g>
</g>
<g>
	<g>
		<line class="st0" x1="127.6" y1="359.7" x2="127.6" y2="318.7"/>
		<g>
			<polygon points="127.6,366.1 131.4,357 127.6,359.2 123.9,357 			"/>
		</g>
	</g>
</g>
<g>
	<g>
		<line class="st0" x1="250.6" y1="359.7" x2="250.6" y2="318.7"/>
		<g>
			<polygon points="250.6,366.1 254.3,357 250.6,359.2 246.9,357 			"/>
		</g>
	</g>
</g>
<g>
	<g>
		<line class="st0" x1="340" y1="359.7" x2="340" y2="318.7"/>
		<g>
			<polygon points="340,366.1 343.8,357 340,359.2 336.3,357 			"/>
		</g>
	</g>
</g>
<g>
	<g>
		<line class="st0" x1="295.3" y1="359.7" x2="295.3" y2="318.7"/>
		<g>
			<polygon points="295.3,366.1 299.1,357 295.3,359.2 291.6,357 			"/>
		</g>
	</g>
</g>
<g>
	<g>
		<line class="st0" x1="384.8" y1="359.7" x2="384.8" y2="318.7"/>
		<g>
			<polygon points="384.8,366.1 388.5,357 384.8,359.2 381,357 			"/>
		</g>
	</g>
</g>
<g>
	<g>
		<line class="st0" x1="228.2" y1="359.7" x2="228.2" y2="318.7"/>
		<g>
			<polygon points="228.2,366.1 232,357 228.2,359.2 224.5,357 			"/>
		</g>
	</g>
</g>
<g>
	<g>
		<line class="st0" x1="317.7" y1="359.7" x2="317.7" y2="318.7"/>
		<g>
			<polygon points="317.7,366.1 321.4,357 317.7,359.2 313.9,357 			"/>
		</g>
	</g>
</g>
<g>
	<g>
		<line class="st0" x1="407.1" y1="359.7" x2="407.1" y2="318.7"/>
		<g>
			<polygon points="407.1,366.1 410.9,357 407.1,359.2 403.4,357 			"/>
		</g>
	</g>
</g>
<g>
	<g>
		<line class="st0" x1="273" y1="359.7" x2="273" y2="318.7"/>
		<g>
			<polygon points="273,366.1 276.7,357 273,359.2 269.2,357 			"/>
		</g>
	</g>
</g>
<g>
	<g>
		<line class="st0" x1="362.4" y1="359.7" x2="362.4" y2="318.7"/>
		<g>
			<polygon points="362.4,366.1 366.1,357 362.4,359.2 358.7,357 			"/>
		</g>
	</g>
</g>
<g>
	<g>
		<line class="st0" x1="429.5" y1="359.7" x2="429.5" y2="318.7"/>
		<g>
			<polygon points="429.5,366.1 433.2,357 429.5,359.2 425.7,357 			"/>
		</g>
	</g>
</g>
<g>
	<g>
		<polyline class="st0" points="606.4,426.8 606.4,432.8 598.4,432.8 		"/>
		<line class="st3" x1="582.9" y1="432.8" x2="61.6" y2="432.8"/>
		<polyline class="st0" points="53.9,432.8 45.9,432.8 45.9,426.8 		"/>
		<line class="st4" x1="45.9" y1="415.4" x2="45.9" y2="307.1"/>
		<polyline class="st0" points="45.9,301.4 45.9,295.4 53.9,295.4 		"/>
		<line class="st3" x1="69.4" y1="295.4" x2="590.6" y2="295.4"/>
		<polyline class="st0" points="598.4,295.4 606.4,295.4 606.4,301.4 		"/>
		<line class="st4" x1="606.4" y1="312.8" x2="606.4" y2="421.1"/>
	</g>
</g>
<text transform="matrix(1 0 0 1 571.6301 314.0266)" class="st1 st2">50/50</text>
</svg>
